<svg xmlns="http://www.w3.org/2000/svg" width="24" height="25" fill="none"><g clip-path="url(#a)"><path fill="#ABB6B7" d="M21.543 6.998C22 8.78 22 12.5 22 12.5s0 3.72-.457 5.502c-.254.985-.997 1.76-1.938 2.022C17.896 20.5 12 20.5 12 20.5s-5.893 0-7.605-.476c-.945-.266-1.687-1.04-1.938-2.022C2 16.22 2 12.5 2 12.5s0-3.72.457-5.502c.254-.985.997-1.76 1.938-2.022C6.107 4.5 12 4.5 12 4.5s5.896 0 7.605.476c.945.266 1.687 1.04 1.938 2.022ZM10 16l6-3.5L10 9v7Z"/></g><defs><clipPath id="a"><path fill="#fff" d="M0 .5h24v24H0z"/></clipPath></defs></svg>