<svg xmlns="http://www.w3.org/2000/svg" viewBox="0 0 149 25" fill="none"><g fill="#092326" clip-path="url(#a)"><path d="m18.461 19.841-5.562 4.8C4.757 24.32 0 22.358 0 16.265h6.201c0 2.492 2.083 3.623 9.94 3.623.853 0 1.634 0 2.32-.046ZM29.799 8.532h-6.201c0-2.585-2.651-3.231-9.113-3.231-.568 0-1.112 0-1.585.023L18.367.592c7.195.485 11.432 2.839 11.432 7.94Z"/><path d="M24.047 18.687c.402-.346.592-.808.592-1.339 0-1.961-1.373-2.285-9.207-2.654C4.922 14.21.734 12.617.734 7.332c0-4.986 5.017-6.694 13.49-6.81L7.74 6.086c-.591.439-.804.854-.804 1.523 0 1.824 1.443 2.147 8.473 2.562 9.515.508 15.408 1.016 15.408 6.97 0 5.978-5.515 7.41-13.728 7.548M39.29 5.9v5.055h17.254v5.1H39.29v8.287h-6.201V.822h25.514V5.9H39.29Z"/><path d="m70.342 16.287-9.254 8.078h-8.545l13.586-11.77L52.543.822h8.545l9.254 8.079 4.047 3.692M76.685 10.701 88.117.823h-8.544l-7.1 6.185M72.448 18.133l7.125 6.232h8.544l-11.48-9.925M130.365 16.287l-9.231 8.078h-8.544l13.586-11.77L112.59.822h8.544l9.231 8.079 4.071 3.692M136.685 10.747 148.164.823h-8.544l-7.148 6.231M132.519 18.18l7.1 6.185h8.545l-11.432-9.879"/><path d="M115.904 12.594c0 8.009-5.491 11.77-11.716 11.77H86.673V.824h17.515c6.248 0 11.716 3.762 11.716 11.77Zm-6.201 0c0-5.724-3.172-6.694-7.858-6.694h-8.97v13.387h8.97c4.686 0 7.858-.97 7.858-6.693Z"/></g><defs><clipPath id="a"><path fill="#fff" d="M0 .5h148.164v24.188H0z"/></clipPath></defs></svg>